PathFileType	4	(X/Y/Z)	s08c0302.trc
DataRate	CameraRate	NumFrames	NumMarkers	Units	OrigDataRate	OrigDataStartFrame	OrigNumFrames
200	200	5	50	mm	200	1250	2000
Frame#	Time	racr			lacr			c7			jug			rlel			rdr			llel			ldr			s2			lic			ric			lasi			rasi			rpsi			lpsi			rgt			lgt			rth1			rth2			rth3			rth4			rlfc			rmfc			rsh1			rsh2			rsh3			rsh4			rlmal			rmmal			rcal			rtoe			rmt5			lth1			lth2			lth4			lth3			llfc			lmfc			llmal			lmmal			lcal			lmt5			lsh1			lsh2			lsh3			lsh4			ltoe			SBIKE			LBIKE			RBIKE			
		X1	Y1	Z1	X2	Y2	Z2	X3	Y3	Z3	X4	Y4	Z4	X5	Y5	Z5	X6	Y6	Z6	X7	Y7	Z7	X8	Y8	Z8	X9	Y9	Z9	X10	Y10	Z10	X11	Y11	Z11	X12	Y12	Z12	X13	Y13	Z13	X14	Y14	Z14	X15	Y15	Z15	X16	Y16	Z16	X17	Y17	Z17	X18	Y18	Z18	X19	Y19	Z19	X20	Y20	Z20	X21	Y21	Z21	X22	Y22	Z22	X23	Y23	Z23	X24	Y24	Z24	X25	Y25	Z25	X26	Y26	Z26	X27	Y27	Z27	X28	Y28	Z28	X29	Y29	Z29	X30	Y30	Z30	X31	Y31	Z31	X32	Y32	Z32	X33	Y33	Z33	X34	Y34	Z34	X35	Y35	Z35	X36	Y36	Z36	X37	Y37	Z37	X38	Y38	Z38	X39	Y39	Z39	X40	Y40	Z40	X41	Y41	Z41	X42	Y42	Z42	X43	Y43	Z43	X44	Y44	Z44	X45	Y45	Z45	X46	Y46	Z46	X47	Y47	Z47	X48	Y48	Z48	X49	Y49	Z49	X50	Y50	Z50	
1250	6.2500	873.921810	1378.450102	-98.448305	833.720017	1407.500289	-431.501994	831.876116	1448.056738	-246.715817	792.525243	1287.301043	-256.309257	742.398472	1156.697239	52.183455	801.848956	895.203548	-52.349677	728.544949	1146.135061	-514.152375	806.410818	884.512855	-423.233337	257.528018	1264.901650	-247.047723	422.465940	1267.045427	-386.643191	423.091350	1213.697258	-84.424010	435.148149	1205.514957	-353.751169	431.163450	1155.049172	-121.564883	297.064707	1288.447461	-184.711914	295.374207	1310.880541	-276.241039	303.841743	1113.223376	-81.737012	364.501472	1160.844845	-442.597888	332.403957	953.726955	-65.636326	363.942293	870.483333	-65.167462	350.507550	785.005537	-73.600939	400.782748	874.239291	-70.442103	370.901135	670.660079	-87.031514	349.130183	656.220523	-192.465739	314.008922	552.318228	-48.296644	325.239856	464.346503	-60.521869	291.290856	384.532658	-64.479680	355.661624	462.509064	-88.827375	265.252924	265.910812	-66.165609	289.192101	282.069089	-154.079517	190.309602	257.891375	-114.992493	472.961207	159.975146	-101.811037	374.795884	155.822880	-39.658177	446.188252	1047.770325	-437.716967	516.614456	997.694805	-423.860454	540.795791	1019.228617	-406.214020	553.617545	916.651944	-419.993182	587.737732	800.612980	-391.731920	569.686237	777.614692	-287.528096	217.007132	607.821526	-403.916131	249.736253	597.570371	-319.359560	162.708019	645.086091	-363.279956	230.956887	441.017334	-419.306157	482.302263	735.151999	-414.544881	417.017921	682.936715	-403.375198	330.688624	661.953252	-404.387175	428.332605	662.433544	-368.613302	299.932586	390.874387	-348.066691	-145.834620	936.210092	-224.088638	9.233025	80.397812	-425.149269	9.344606	80.021680	-27.132949	
1251	6.2550	875.096654	1383.302875	-102.997842	831.737154	1409.608673	-435.416979	831.156286	1451.342441	-251.389825	793.308551	1290.164034	-259.489697	747.616417	1159.582400	48.185107	802.400048	894.725985	-53.681549	727.768314	1146.369167	-514.243966	806.612429	884.622651	-422.901852	256.944596	1263.620991	-240.670750	420.289349	1267.952352	-384.523647	427.988535	1210.791660	-83.710232	434.358777	1206.866997	-352.128156	434.277348	1151.982603	-121.126766	298.826460	1285.335673	-179.835330	294.721682	1309.943795	-269.386538	306.655699	1110.367098	-79.826619	362.369824	1162.104045	-441.337373	330.500879	951.902678	-64.225651	359.646211	867.743071	-64.018965	343.053338	782.607177	-71.863897	396.004764	870.586222	-70.677537	360.876268	668.167587	-86.293077	338.058216	653.261169	-191.631869	303.802229	549.648619	-47.815884	315.850898	461.741890	-59.827732	282.716399	381.895519	-63.637172	345.665362	460.483049	-87.976203	257.523796	263.294599	-65.501291	280.996539	278.527007	-153.532912	183.235276	256.607750	-114.438075	463.660701	152.447803	-101.940094	365.749989	150.717310	-39.576336	446.157777	1050.202352	-436.488833	517.831315	1001.820896	-423.455287	541.549967	1023.887544	-405.919671	556.850292	921.778330	-420.032283	593.813957	806.807755	-392.151418	576.624839	783.678675	-285.377214	224.617394	612.780182	-403.040265	257.402359	603.031571	-318.641081	169.454642	649.485856	-362.639418	240.537602	446.449947	-419.221800	489.125078	741.533889	-414.339049	423.366467	687.501264	-400.432350	337.891166	667.584610	-403.898594	435.899094	667.538038	-369.122533	310.850203	397.673612	-348.646241	-145.849816	936.251723	-223.955144	9.245123	80.415011	-425.123191	9.387332	80.039194	-27.089000	
1252	6.2600	875.918921	1388.136824	-107.668425	829.338013	1411.651876	-439.183815	830.213714	1454.520166	-256.205044	793.540169	1293.015083	-262.638186	752.182135	1162.451019	43.972468	803.363912	893.719233	-54.852778	726.825414	1146.713774	-514.332203	806.904500	884.874591	-422.755724	257.706888	1261.457995	-235.358516	418.123975	1268.829235	-382.331864	432.858896	1208.418889	-82.643180	433.640974	1208.195647	-350.277894	437.493195	1148.684056	-120.708861	300.932029	1282.607620	-175.172124	294.925571	1307.768852	-264.205291	309.690406	1108.037997	-77.596689	360.546903	1163.421443	-439.076111	329.037009	950.572817	-62.730140	355.522867	865.660761	-62.671903	336.758776	780.973068	-69.229685	391.778386	867.294374	-70.187556	350.499671	666.151937	-86.325588	326.636618	651.443524	-190.910452	294.468025	548.466941	-45.745627	306.655901	460.088102	-58.610675	274.081685	379.985361	-62.684914	336.407425	459.128982	-86.935415	249.865850	261.390106	-64.775668	272.604386	275.446423	-153.158585	175.805657	257.081360	-113.001047	454.237979	145.538523	-101.968849	356.428493	146.167395	-39.403302	446.265911	1053.194553	-434.995715	519.144942	1006.380503	-422.889695	542.568976	1028.944487	-405.661628	560.042959	927.238670	-420.326019	599.819667	812.888328	-392.844663	583.898991	789.165253	-285.258364	232.423370	616.996802	-402.279071	265.344103	607.608098	-318.192011	176.258071	653.211225	-362.038105	250.611078	451.492270	-419.347881	496.157154	747.454523	-414.068315	430.513936	693.156863	-400.525935	345.200391	672.795063	-403.617587	443.476879	672.781499	-369.743727	321.713503	403.422707	-348.224115	-145.862534	936.284230	-223.832623	9.246248	80.464490	-425.103535	9.435737	80.053301	-27.101822	
1253	6.2650	876.440258	1392.779635	-112.232832	827.171043	1413.794042	-443.161648	829.143024	1457.676769	-260.828712	793.818041	1295.842754	-265.912273	756.717458	1165.001005	39.401858	804.147270	893.253692	-55.778863	725.682983	1147.052258	-514.422891	806.772250	884.421598	-421.646997	258.143583	1260.051543	-230.288293	416.009576	1269.650445	-380.111582	437.817826	1206.494309	-81.286894	433.104147	1209.545075	-348.380105	440.512442	1146.089148	-119.150802	303.099623	1280.431209	-169.843559	294.347027	1306.056182	-262.524710	312.705645	1106.037610	-75.221744	359.206035	1164.967671	-436.717841	327.557749	949.619346	-60.520006	351.671522	863.881607	-60.698000	330.216544	779.747346	-66.610326	388.102323	864.486697	-69.190617	341.084505	665.153784	-83.968321	316.048769	650.270775	-189.148183	284.056030	547.100521	-44.907007	297.523691	459.162011	-57.182489	265.564686	378.837115	-61.543181	327.422964	458.364850	-85.392577	242.359446	260.359286	-64.140341	265.508371	273.768274	-152.322700	168.872720	257.533237	-112.395153	444.729397	139.311881	-101.904643	346.929684	142.269944	-39.217446	446.692114	1056.580247	-433.347628	520.595647	1011.255336	-422.407841	543.786069	1034.186959	-405.509118	563.143333	933.017565	-420.913667	605.756637	818.796531	-393.738039	591.100199	794.759507	-285.861975	240.381605	620.524148	-401.688016	273.589522	611.672979	-317.933604	183.091001	656.055689	-361.516105	260.829299	455.930260	-419.318164	503.024084	753.200980	-414.408251	437.824926	698.314251	-400.831179	352.546391	677.517399	-403.612053	451.083193	677.587401	-370.431125	332.366196	408.426852	-348.054991	-145.897490	936.299047	-223.686656	9.249868	80.494821	-425.102995	9.436270	80.098280	-27.111532	
1254	6.2700	876.559638	1397.268054	-116.646278	820.072890	1413.910991	-440.886921	827.833746	1460.702633	-265.231163	786.645941	1300.201386	-266.002120	760.573394	1167.366950	34.275086	804.874008	892.790450	-56.640899	724.405431	1147.366302	-514.206560	806.733600	884.939593	-421.707372	258.659989	1258.750015	-225.106793	413.973737	1270.343727	-377.935487	442.798078	1204.826556	-79.872732	432.774281	1210.665929	-346.459773	443.807325	1143.115223	-118.890756	304.982688	1278.359610	-165.199904	293.603708	1305.630741	-257.433165	315.616969	1104.623292	-72.963832	358.400633	1166.864977	-434.211465	326.154222	948.982154	-58.332698	348.170081	862.598766	-58.446612	324.358386	779.174598	-63.486311	384.505832	862.319162	-67.912530	332.098273	664.742549	-82.112666	305.781627	651.405209	-188.250511	274.400687	546.839440	-43.397505	288.795461	458.943848	-55.439130	257.265851	378.415648	-60.194241	318.699270	458.430455	-83.499584	234.913237	259.938907	-63.435043	258.866313	273.606254	-151.163751	162.094188	258.809978	-111.781419	434.933206	133.421862	-101.977162	337.302312	138.908600	-39.062524	447.227426	1060.297460	-431.702522	522.195313	1016.230090	-422.168767	545.216130	1039.561657	-405.486593	566.179770	938.822527	-421.596646	611.343872	824.635209	-394.920122	598.835134	800.257999	-285.446281	248.523199	623.207962	-401.343994	281.714820	614.869901	-317.820081	189.918291	658.243591	-361.216404	271.803984	459.896072	-420.190417	509.756906	758.556275	-415.522037	445.101521	702.954224	-401.367913	358.788055	682.379060	-405.365949	458.814504	682.031407	-371.194679	343.265943	413.354315	-348.224361	-145.949764	936.335922	-223.715084	9.247061	80.511637	-425.102962	9.452075	80.093043	-27.092547	
